# xmcd
#
# Track frame offsets:
#	150
#	11019
#	18467
#	33014
#	43988
#	56790
#	75607
#	84864
#	93692
#	106502
#	125746
#	134080
#	148588
#	162481
#	176289
#	188865
#	202155
#	217092
#	230079
#	245974
#	255951
#	263694
#	272468
#
# Disc length: 3813 seconds
#
# Revision: 2
# Processed by: cddbd v1.5.1PL2 Copyright (c) Steve Scherf et al.
# Submitted via: audiograbber 1.83.01
#
DISCID=4d0ee317
DTITLE=Helen Carter - The Helen Carter Collection
DYEAR=1999
DGENRE=Country
TTITLE0=Poor Wildwood Flower
TTITLE1=Tickling The Frets
TTITLE2=Dark And Stormy Weather
TTITLE3=Hello Stranger
TTITLE4=I Ain't Gonna Work Tomorrow
TTITLE5=The Winding Stream
TTITLE6=Red River Blues
TTITLE7=Helen's Mandolin Rag
TTITLE8=Is This My Destiny
TTITLE9=A Lonesome Day
TTITLE10=Carter Guitar Medley
TTITLE11=Fifty Miles Of Elbow Room
TTITLE12=Clinch Mountain Love
TTITLE13=Poor Old Heartsick Me
TTITLE14=Why Do You Weep Dear Willow
TTITLE15=If You Were Losing Him To Me
TTITLE16=Kneeling Drunkard's Plea
TTITLE17=Mama Sang
TTITLE18=Meeting In The Air
TTITLE19=Hot Footin' It
TTITLE20=Lonesome Fiddle Blues
TTITLE21=No Distinction There
TTITLE22=You Are My Flower
EXTD=Recorded in Spring 1978 (1-12) and Winter 1993 (13-23)
EXTT0=
EXTT1=
EXTT2=
EXTT3=
EXTT4=
EXTT5=
EXTT6=
EXTT7=
EXTT8=
EXTT9=
EXTT10=
EXTT11=
EXTT12=
EXTT13=
EXTT14=
EXTT15=
EXTT16=
EXTT17=
EXTT18=
EXTT19=
EXTT20=
EXTT21=
EXTT22=
PLAYORDER=
